HIERARCHY
ROOT Hips
{
    OFFSET 0.000000 0.000000 0.000000
    CHANNELS 6 Xposition Yposition Zposition Zrotation Xrotation Yrotation
        JOINT Chest
        {
            OFFSET -0.000000 28.596201 -0.000000
            CHANNELS 3 Zrotation Xrotation Yrotation
            JOINT Neck
            {
                OFFSET -0.000000 20.833183 0.000000
                CHANNELS 3 Zrotation Xrotation Yrotation
                JOINT Head
                {
                    OFFSET -0.000000 10.327778 0.000000
                    CHANNELS 3 Zrotation Xrotation Yrotation
                    End Site
                    {
                        OFFSET -0.000000 15.961117 0.000000
                    }
                }
            }
            JOINT LeftCollar
            {
                OFFSET -0.000000 20.833183 0.000000
                CHANNELS 3 Zrotation Xrotation Yrotation
                JOINT LeftShoulder
                {
                    OFFSET 18.777777 -0.000000 0.000000
                    CHANNELS 3 Zrotation Xrotation Yrotation
                    JOINT LeftElbow
                    {
                        OFFSET 23.016544 0.000000 0.000000
                        CHANNELS 3 Zrotation Xrotation Yrotation
                        JOINT LeftWrist
                        {
                            OFFSET 24.619797 0.000000 0.000000
                            CHANNELS 3 Zrotation Xrotation Yrotation
                            End Site
                            {
                                OFFSET 0.000000 -14.083333 0.000000
                            }
                        }
                    }
                }
            }
            JOINT RightCollar
            {
                OFFSET -0.000000 20.833183 0.000000
                CHANNELS 3 Zrotation Xrotation Yrotation
                JOINT RightShoulder
                {
                    OFFSET -18.777777 0.000000 0.000000
                    CHANNELS 3 Zrotation Xrotation Yrotation
                    JOINT RightElbow
                    {
                        OFFSET -23.016544 0.000000 0.000000
                        CHANNELS 3 Zrotation Xrotation Yrotation
                        JOINT RightWrist
                        {
                            OFFSET -24.619797 0.000000 0.000000
                            CHANNELS 3 Zrotation Xrotation Yrotation
                            End Site
                            {
                                OFFSET -0.000000 -14.083333 0.000000
                            }
                        }
                    }
                }
            }
        }
    JOINT LeftHip
    {
        OFFSET 11.266668 0.000000 0.000000
        CHANNELS 3 Zrotation Xrotation Yrotation
        JOINT LeftKnee
        {
            OFFSET -0.000000 -40.535309 0.000000
            CHANNELS 3 Zrotation Xrotation Yrotation
            JOINT LeftAnkle
            {
                OFFSET -0.000000 -39.958225 0.000000
                CHANNELS 3 Zrotation Xrotation Yrotation
                End Site
                {
                    OFFSET -0.000000 -4.694444 15.961117
                }
            }
        }
    }
    JOINT RightHip
    {
        OFFSET -11.266668 0.000000 0.000000
        CHANNELS 3 Zrotation Xrotation Yrotation
        JOINT RightKnee
        {
            OFFSET -0.000000 -40.535309 0.000000
            CHANNELS 3 Zrotation Xrotation Yrotation
            JOINT RightAnkle
            {
                OFFSET -0.000000 -39.958225 0.000000
                CHANNELS 3 Zrotation Xrotation Yrotation
                End Site
                {
                    OFFSET -0.000000 -4.694444 15.961117
                }
            }
        }
    }
}
MOTION
Frames:    6
Frame Time:    0.010000
37.743847    89.075554    -33.601536    4.295826    -3.731122    -100.614967    -5.937931    -4.227723    7.593894    -17.768158    16.085474    17.313818    5.374331    -30.842093    18.929241    -20.469648    -4.386600    24.099878    -20.231138    52.200157    -58.864262    19.311489    -1.736116    -10.293398    67.075333    39.228699    111.726532    21.436617    1.754667    9.430417    20.777546    44.408287    27.566580    16.651052    9.497987    59.268116    -106.038986    -17.605301    20.814566    -2.456193    -7.430519    5.804347    3.787766    7.266512    -0.830879    -1.045740    -6.778681    29.667833    -1.551041    -5.148141    -5.410985    -9.159185    16.997021    10.030424    9.455544    -17.889112    -20.816887    
37.749882    89.081650    -33.766003    4.139003    -3.685646    -100.496445    -6.331840    -3.894629    7.539056    -13.317263    16.555447    14.992285    5.680227    -26.075182    14.208840    -19.738972    -3.891368    21.134388    -20.303253    52.930435    -58.893604    19.086811    -1.740052    -10.414765    67.007355    39.977932    111.441833    21.768785    1.446461    5.702021    20.367231    43.346466    28.694429    16.015680    8.957858    59.609783    -103.849281    -17.003830    20.753632    -2.377157    -7.160145    6.120322    3.893346    7.052161    -1.339322    -1.154246    -6.710786    29.735107    -1.384209    -4.952306    -5.435924    -9.206246    17.004396    9.897381    9.298210    -17.882856    -20.813105    
37.760525    89.064949    -33.902176    4.044685    -3.660514    -100.475250    -6.222255    -3.968455    7.470106    -13.546638    16.713629    15.132305    5.778444    -26.549168    14.508380    -19.799543    -3.838355    21.411013    -19.063293    53.228470    -60.150986    19.296339    -1.743109    -10.087990    66.634361    39.876976    111.909790    21.866995    1.285301    5.781555    20.684996    43.458702    28.289347    16.254894    9.280437    59.326290    -104.946625    -17.270367    20.401598    -2.305362    -6.903177    5.876585    3.907313    6.750972    -1.160454    -1.316371    -6.572021    29.826147    -1.225800    -4.881920    -5.314581    -9.258177    17.072178    9.740788    9.265110    -17.881525    -20.809864    
37.780582    89.069412    -34.018570    3.982096    -3.639009    -100.442146    -6.103654    -4.008781    7.432139    -13.528054    16.687416    15.166854    5.755888    -26.475283    14.534399    -19.788313    -3.812702    21.475420    -18.999907    53.302731    -60.350399    19.414021    -1.714708    -9.976011    66.444176    40.083405    111.891846    21.872076    1.201457    5.797987    20.815638    43.516510    28.098074    16.313770    9.339499    59.237293    -104.712601    -17.254852    20.377628    -2.236653    -6.745565    5.876644    3.936155    6.563002    -1.208757    -1.418998    -6.486669    29.855560    -1.104361    -4.836808    -5.252833    -9.288122    17.122124    9.617782    9.202913    -17.874012    -20.796370    
37.810833    89.075760    -34.153931    3.929216    -3.616529    -100.415199    -5.975763    -4.076304    7.388073    -13.517915    16.680843    15.207390    5.753965    -26.438419    14.575670    -19.759083    -3.801214    21.518183    -19.002798    53.398335    -60.473351    19.463913    -1.688655    -9.887938    66.343407    40.363781    111.720314    21.884363    1.153999    5.801651    20.920216    43.536098    27.936220    16.357809    9.345466    59.140331    -104.523697    -17.278194    20.344322    -2.149462    -6.594950    5.897470    3.964950    6.361134    -1.260557    -1.536307    -6.389807    29.875717    -0.965586    -4.818913    -5.179698    -9.318415    17.192623    9.470908    9.135223    -17.861305    -20.765291    
37.851467    89.082840    -34.306572    3.888680    -3.592878    -100.398125    -5.837000    -4.173761    7.339128    -13.545074    16.690542    15.269262    5.801150    -26.437761    14.644862    -19.722412    -3.786774    21.554796    -19.084940    53.484325    -60.515392    19.466105    -1.654259    -9.811789    66.350616    40.683815    111.336334    21.904594    1.136173    5.817379    21.017576    43.531544    27.772686    16.413935    9.351843    59.017925    -104.368958    -17.344627    20.328234    -2.042198    -6.459375    5.949296    3.992268    6.155449    -1.320688    -1.665136    -6.285157    29.883965    -0.812124    -4.833376    -5.104059    -9.347798    17.284071    9.300155    9.064910    -17.840998    -20.703783    
